<svg viewBox="0 0 800 600" xmlns="http://www.w3.org/2000/svg">
  <!-- 背景 -->
  <defs>
    <linearGradient id="backgroundGradient" x1="0%" y1="0%" x2="100%" y2="100%">
      <stop offset="0%" style="stop-color:#1e3c72"/>
      <stop offset="100%" style="stop-color:#2a5298"/>
    </linearGradient>
    
    <!-- Node.js绿色渐变 -->
    <linearGradient id="nodeGradient" x1="0%" y1="0%" x2="100%" y2="100%">
      <stop offset="0%" style="stop-color:#68a063"/>
      <stop offset="100%" style="stop-color:#8cc84b"/>
    </linearGradient>
    
    <!-- 代码窗口阴影 -->
    <filter id="shadow" x="-20%" y="-20%" width="140%" height="140%">
      <feDropShadow dx="0" dy="8" stdDeviation="12" flood-color="#000" flood-opacity="0.3"/>
    </filter>
    
    <!-- 发光效果 -->
    <filter id="glow">
      <feGaussianBlur stdDeviation="3" result="coloredBlur"/>
      <feMerge> 
        <feMergeNode in="coloredBlur"/>
        <feMergeNode in="SourceGraphic"/>
      </feMerge>
    </filter>
  </defs>
  
  <!-- 背景 -->
  <rect width="800" height="600" fill="url(#backgroundGradient)"/>
  
  <!-- 装饰性网格 -->
  <defs>
    <pattern id="grid" width="40" height="40" patternUnits="userSpaceOnUse">
      <path d="M 40 0 L 0 0 0 40" fill="none" stroke="#ffffff" stroke-width="0.5" opacity="0.1"/>
    </pattern>
  </defs>
  <rect width="800" height="600" fill="url(#grid)"/>
  
  <!-- 代码编辑器窗口 -->
  <g transform="translate(50, 80)">
    <!-- 窗口框架 -->
    <rect x="0" y="0" width="500" height="320" rx="12" fill="#1e1e1e" filter="url(#shadow)"/>
    
    <!-- 窗口标题栏 -->
    <rect x="0" y="0" width="500" height="40" rx="12" fill="#2d2d30"/>
    <rect x="0" y="28" width="500" height="12" fill="#2d2d30"/>
    
    <!-- 窗口控制按钮 -->
    <circle cx="20" cy="20" r="6" fill="#ff5f56"/>
    <circle cx="40" cy="20" r="6" fill="#ffbd2e"/>
    <circle cx="60" cy="20" r="6" fill="#27ca3f"/>
    
    <!-- 文件标签 -->
    <rect x="80" y="8" width="80" height="24" rx="4" fill="#264f78"/>
    <text x="120" y="24" font-family="monospace" font-size="12" fill="#ffffff" text-anchor="middle">server.js</text>
    
    <!-- 代码内容 -->
    <g transform="translate(20, 60)">
      <!-- 行号 -->
      <rect x="0" y="0" width="30" height="240" fill="#262626"/>
      <text x="15" y="20" font-family="monospace" font-size="12" fill="#858585" text-anchor="middle">1</text>
      <text x="15" y="40" font-family="monospace" font-size="12" fill="#858585" text-anchor="middle">2</text>
      <text x="15" y="60" font-family="monospace" font-size="12" fill="#858585" text-anchor="middle">3</text>
      <text x="15" y="80" font-family="monospace" font-size="12" fill="#858585" text-anchor="middle">4</text>
      <text x="15" y="100" font-family="monospace" font-size="12" fill="#858585" text-anchor="middle">5</text>
      <text x="15" y="120" font-family="monospace" font-size="12" fill="#858585" text-anchor="middle">6</text>
      <text x="15" y="140" font-family="monospace" font-size="12" fill="#858585" text-anchor="middle">7</text>
      <text x="15" y="160" font-family="monospace" font-size="12" fill="#858585" text-anchor="middle">8</text>
      <text x="15" y="180" font-family="monospace" font-size="12" fill="#858585" text-anchor="middle">9</text>
      <text x="15" y="200" font-family="monospace" font-size="12" fill="#858585" text-anchor="middle">10</text>
      
      <!-- 代码 -->
      <g transform="translate(40, 0)">
        <!-- import语句 -->
        <text x="0" y="20" font-family="monospace" font-size="12" fill="#c586c0">import</text>
        <text x="50" y="20" font-family="monospace" font-size="12" fill="#9cdcfe">express</text>
        <text x="105" y="20" font-family="monospace" font-size="12" fill="#c586c0">from</text>
        <text x="140" y="20" font-family="monospace" font-size="12" fill="#ce9178">'express'</text>
        
        <!-- 空行 -->
        
        <!-- const app声明 -->
        <text x="0" y="60" font-family="monospace" font-size="12" fill="#569cd6">const</text>
        <text x="45" y="60" font-family="monospace" font-size="12" fill="#9cdcfe">app</text>
        <text x="70" y="60" font-family="monospace" font-size="12" fill="#d4d4d4">=</text>
        <text x="85" y="60" font-family="monospace" font-size="12" fill="#dcdcaa">express</text>
        <text x="130" y="60" font-family="monospace" font-size="12" fill="#d4d4d4">()</text>
        
        <!-- 路由定义 -->
        <text x="0" y="100" font-family="monospace" font-size="12" fill="#9cdcfe">app</text>
        <text x="25" y="100" font-family="monospace" font-size="12" fill="#d4d4d4">.</text>
        <text x="30" y="100" font-family="monospace" font-size="12" fill="#dcdcaa">get</text>
        <text x="50" y="100" font-family="monospace" font-size="12" fill="#d4d4d4">(</text>
        <text x="55" y="100" font-family="monospace" font-size="12" fill="#ce9178">'/'</text>
        <text x="75" y="100" font-family="monospace" font-size="12" fill="#d4d4d4">,</text>
        <text x="85" y="100" font-family="monospace" font-size="12" fill="#d4d4d4">(</text>
        <text x="90" y="100" font-family="monospace" font-size="12" fill="#9cdcfe">req</text>
        <text x="110" y="100" font-family="monospace" font-size="12" fill="#d4d4d4">,</text>
        <text x="120" y="100" font-family="monospace" font-size="12" fill="#9cdcfe">res</text>
        <text x="140" y="100" font-family="monospace" font-size="12" fill="#d4d4d4">)</text>
        <text x="150" y="100" font-family="monospace" font-size="12" fill="#569cd6">=></text>
        <text x="175" y="100" font-family="monospace" font-size="12" fill="#d4d4d4">{</text>
        
        <!-- 响应 -->
        <text x="20" y="120" font-family="monospace" font-size="12" fill="#9cdcfe">res</text>
        <text x="40" y="120" font-family="monospace" font-size="12" fill="#d4d4d4">.</text>
        <text x="45" y="120" font-family="monospace" font-size="12" fill="#dcdcaa">json</text>
        <text x="70" y="120" font-family="monospace" font-size="12" fill="#d4d4d4">({</text>
        <text x="85" y="120" font-family="monospace" font-size="12" fill="#9cdcfe">message</text>
        <text x="135" y="120" font-family="monospace" font-size="12" fill="#d4d4d4">:</text>
        <text x="145" y="120" font-family="monospace" font-size="12" fill="#ce9178">'Hello Node.js!'</text>
        <text x="245" y="120" font-family="monospace" font-size="12" fill="#d4d4d4">})</text>
        
        <!-- 闭合括号 -->
        <text x="0" y="140" font-family="monospace" font-size="12" fill="#d4d4d4">})</text>
        
        <!-- 监听端口 -->
        <text x="0" y="180" font-family="monospace" font-size="12" fill="#9cdcfe">app</text>
        <text x="25" y="180" font-family="monospace" font-size="12" fill="#d4d4d4">.</text>
        <text x="30" y="180" font-family="monospace" font-size="12" fill="#dcdcaa">listen</text>
        <text x="70" y="180" font-family="monospace" font-size="12" fill="#d4d4d4">(</text>
        <text x="75" y="180" font-family="monospace" font-size="12" fill="#b5cea8">3000</text>
        <text x="100" y="180" font-family="monospace" font-size="12" fill="#d4d4d4">,</text>
        <text x="110" y="180" font-family="monospace" font-size="12" fill="#d4d4d4">()</text>
        <text x="125" y="180" font-family="monospace" font-size="12" fill="#569cd6">=></text>
        <text x="150" y="180" font-family="monospace" font-size="12" fill="#d4d4d4">{</text>
        
        <text x="20" y="200" font-family="monospace" font-size="12" fill="#9cdcfe">console</text>
        <text x="70" y="200" font-family="monospace" font-size="12" fill="#d4d4d4">.</text>
        <text x="75" y="200" font-family="monospace" font-size="12" fill="#dcdcaa">log</text>
        <text x="95" y="200" font-family="monospace" font-size="12" fill="#d4d4d4">(</text>
        <text x="100" y="200" font-family="monospace" font-size="12" fill="#ce9178">'Server running on port 3000'</text>
        <text x="280" y="200" font-family="monospace" font-size="12" fill="#d4d4d4">)</text>
        
        <text x="0" y="220" font-family="monospace" font-size="12" fill="#d4d4d4">})</text>
      </g>
    </g>
  </g>
  
  <!-- Node.js Logo区域 -->
  <g transform="translate(580, 100)">
    <!-- Node.js图标背景 -->
    <circle cx="50" cy="50" r="45" fill="url(#nodeGradient)" filter="url(#glow)"/>
    
    <!-- 简化的Node.js标志 -->
    <g transform="translate(30, 30)">
      <!-- 左边的形状 -->
      <path d="M10 15 L25 25 L25 35 L10 45 L5 42 L5 18 Z" fill="#ffffff"/>
      <!-- 右边的形状 -->
      <path d="M25 15 L40 25 L35 28 L25 22 L25 35 L35 42 L40 45 L25 55 L10 45 L15 42 L25 48 L25 35 L15 28 L10 25 Z" fill="#ffffff"/>
    </g>
    
    <!-- Node.js文字 -->
    <text x="50" y="125" font-family="Arial, sans-serif" font-size="18" font-weight="bold" fill="#8cc84b" text-anchor="middle">Node.js</text>
  </g>
  
  <!-- 技术栈图标 -->
  <g transform="translate(100, 450)">
    <!-- JavaScript图标 -->
    <rect x="0" y="0" width="80" height="80" rx="8" fill="#f7df1e"/>
    <text x="40" y="50" font-family="Arial, sans-serif" font-size="24" font-weight="bold" fill="#000000" text-anchor="middle">JS</text>
    
    <!-- Express图标 -->
    <rect x="100" y="0" width="80" height="80" rx="8" fill="#000000"/>
    <text x="140" y="35" font-family="Arial, sans-serif" font-size="12" font-weight="bold" fill="#ffffff" text-anchor="middle">Express</text>
    <text x="140" y="55" font-family="Arial, sans-serif" font-size="10" fill="#ffffff" text-anchor="middle">Fast, unopinionated</text>
    <text x="140" y="68" font-family="Arial, sans-serif" font-size="10" fill="#ffffff" text-anchor="middle">minimalist</text>
    
    <!-- MongoDB图标 -->
    <rect x="200" y="0" width="80" height="80" rx="8" fill="#47a248"/>
    <ellipse cx="240" cy="25" rx="15" ry="8" fill="#ffffff"/>
    <ellipse cx="240" cy="40" rx="20" ry="12" fill="#ffffff"/>
    <ellipse cx="240" cy="58" rx="15" ry="8" fill="#ffffff"/>
    <text x="240" y="75" font-family="Arial, sans-serif" font-size="8" fill="#ffffff" text-anchor="middle">MongoDB</text>
    
    <!-- React图标 -->
    <rect x="300" y="0" width="80" height="80" rx="8" fill="#61dafb"/>
    <circle cx="340" cy="40" r="8" fill="#282c34"/>
    <ellipse cx="340" cy="40" rx="25" ry="10" fill="none" stroke="#282c34" stroke-width="2"/>
    <ellipse cx="340" cy="40" rx="25" ry="10" fill="none" stroke="#282c34" stroke-width="2" transform="rotate(60 340 40)"/>
    <ellipse cx="340" cy="40" rx="25" ry="10" fill="none" stroke="#282c34" stroke-width="2" transform="rotate(-60 340 40)"/>
    <text x="340" y="75" font-family="Arial, sans-serif" font-size="8" fill="#282c34" text-anchor="middle">React</text>
    
    <!-- Socket.io图标 -->
    <rect x="400" y="0" width="80" height="80" rx="8" fill="#010101"/>
    <circle cx="425" cy="25" r="6" fill="#ffffff"/>
    <circle cx="455" cy="25" r="6" fill="#ffffff"/>
    <circle cx="440" cy="45" r="8" fill="#ffffff"/>
    <circle cx="440" cy="65" r="4" fill="#ffffff"/>
    <text x="440" y="75" font-family="Arial, sans-serif" font-size="7" fill="#ffffff" text-anchor="middle">Socket.IO</text>
  </g>
  
  <!-- 数据流动画线条 -->
  <g stroke="#8cc84b" stroke-width="2" fill="none" opacity="0.6">
    <!-- 从代码到Node.js -->
    <path d="M 550 200 Q 580 180 600 150">
      <animate attributeName="stroke-dasharray" values="0,100;20,80;0,100" dur="3s" repeatCount="indefinite"/>
    </path>
    
    <!-- 从Node.js到数据库 -->
    <path d="M 600 200 Q 400 350 240 450">
      <animate attributeName="stroke-dasharray" values="0,100;20,80;0,100" dur="4s" repeatCount="indefinite"/>
    </path>
    
    <!-- 到前端 -->
    <path d="M 650 180 Q 500 350 340 450">
      <animate attributeName="stroke-dasharray" values="0,100;20,80;0,100" dur="3.5s" repeatCount="indefinite"/>
    </path>
  </g>
  
  <!-- 标题文字 -->
  <text x="400" y="50" font-family="Arial, sans-serif" font-size="28" font-weight="bold" fill="#ffffff" text-anchor="middle">Node.js 全栈开发</text>
  <text x="400" y="75" font-family="Arial, sans-serif" font-size="14" fill="#cccccc" text-anchor="middle">JavaScript 服务端运行时环境</text>
  
  <!-- 装饰性元素 -->
  <g opacity="0.3">
    <!-- 浮动的代码符号 -->
    <text x="700" y="150" font-family="monospace" font-size="20" fill="#8cc84b">{}</text>
    <text x="720" y="200" font-family="monospace" font-size="16" fill="#8cc84b">[]</text>
    <text x="680" y="250" font-family="monospace" font-size="18" fill="#8cc84b">()</text>
    
    <!-- 动画效果 -->
    <animateTransform attributeName="transform" type="translate" values="0,0; 5,5; 0,0" dur="4s" repeatCount="indefinite"/>
  </g>
  
  <!-- 代码执行指示器 -->
  <g transform="translate(570, 60)">
    <rect x="0" y="0" width="80" height="20" rx="10" fill="#4caf50"/>
    <text x="40" y="14" font-family="Arial, sans-serif" font-size="10" fill="#ffffff" text-anchor="middle">Running</text>
    <!-- 闪烁动画 -->
    <animate attributeName="opacity" values="1;0.5;1" dur="2s" repeatCount="indefinite"/>
  </g>
</svg>